<?xml version="1.0" standalone="no"?>
<!-- Generator: Adobe Fireworks 10, Export SVG Extension by Aaron Beall (http://fireworks.abeall.com) . Version: 0.6.1  -->
<!DOCTYPE svg PUBLIC "-//W3C//DTD SVG 1.1//EN" "http://www.w3.org/Graphics/SVG/1.1/DTD/svg11.dtd">
<svg id="Terra.fw-Page%201" viewBox="0 0 1500 1000" style="background-color:#ffffff" version="1.1"
	xmlns="http://www.w3.org/2000/svg" xmlns:xlink="http://www.w3.org/1999/xlink" xml:space="preserve"
	x="0px" y="0px" width="1500px" height="1000px"
>
	<g id="Layer%201">
		<path id="TERA%20LOGO" d="M 946.42 573 L 1001.4063 573 L 1066.3906 483 L 1103.7969 536 L 1049.6094 536 L 1022.6094 573 L 1186 573 L 1095.7969 443.5625 C 1092.7344 439.125 1088.7344 435.3438 1083.7969 432.25 C 1078.2031 428.75 1072.6719 427 1067.2031 427 C 1061.8594 427 1056.3281 428.75 1050.5938 432.25 C 1045.3906 435.4844 1041.3281 439.25 1038.4063 443.5625 L 946.42 573 ZM 935.7684 529.0625 C 944.7059 524.6094 951.7055 518.2344 956.7668 509.9219 C 961.8282 501.625 964.3589 492.3438 964.3589 482.0781 C 964.3589 463.8594 958.1248 449.8125 945.6812 439.9531 C 934.5956 431.3281 920.1274 427 902.2892 427 L 807.2573 427 L 807.1354 464 L 906.326 464 C 921.3126 464 928.8059 469.9063 928.8059 481.7031 C 928.8059 487.7656 926.2999 492.3281 921.3126 495.4219 C 917.3746 497.8125 912.3749 499 906.326 499 L 807.1354 499 L 807.1354 573 L 842.6885 573 L 842.6885 536 L 891.3024 536 L 924.895 572.125 L 947.72 541.21 L 935.7684 529.0625 ZM 659.2316 529.0625 L 618 573 L 669.2927 573 L 703.6976 536 L 752.3115 536 L 752.3115 573 L 787.8646 573 L 787.8646 499 L 688.674 499 C 682.6251 499 677.6254 497.8125 673.6874 495.4219 C 668.7001 492.3281 666.1941 487.7656 666.1941 481.7031 C 666.1941 469.9063 673.6874 464 688.674 464 L 787.8646 464 L 787.7427 427 L 692.7108 427 C 674.8726 427 660.4044 431.3281 649.3188 439.9531 C 636.8752 449.8125 630.6411 463.8594 630.6411 482.0781 C 630.6411 492.3438 633.1718 501.625 638.2332 509.9219 C 643.2945 518.2344 650.2941 524.6094 659.2316 529.0625 ZM 470 536 L 470 573 L 591.7969 573 L 626.5938 536 L 520 536 L 515 536 L 470 536 ZM 515 518 L 520 518 L 584.8438 518 L 619.5938 481 L 522 481 L 515 481 L 470 481 L 470 518 L 515 518 ZM 354.7969 427 L 314 464 L 385 464 L 385 573 L 430 573 L 430 464 L 470 464 L 473.3281 464 L 515 464 L 522 464 L 591.8438 464 L 626.5938 427 L 502.4063 427 L 470 427 L 354.7969 427 Z" fill="#000000"/>
	</g>
</svg>